<svg id="Capa_1" enable-background="new 0 0 512.024 512.024" height="512" viewBox="0 0 512.024 512.024" width="512" xmlns="http://www.w3.org/2000/svg"><g><path d="m256.012 125.354-194.25 144.87v226.8c0 8.28 6.71 15 15 15h44.74l63.74-28.62 63.74 28.62h14.061l63.74-30.32 63.74 30.32h44.74c8.29 0 15-6.72 15-15v-226.8z" fill="#fff5f5"/><path d="m263.042 512.024 63.74-30.32 63.74 30.32h44.74c8.29 0 15-6.72 15-15v-226.8l-194.25-144.87v386.67z" fill="#cfdfe6"/><path d="m479.182 188.505-215.11-137.131c-4.91-3.13-11.21-3.13-16.12 0l-215.11 137.131c-4.32 2.76-6.93 7.52-6.93 12.649v64.53c0 11.803 13.047 18.994 23.02 12.67l207.08-131.15 207.08 131.15c9.871 6.27 23.02-.782 23.02-12.67v-64.53c0-5.13-2.61-9.889-6.93-12.649z" fill="#ffe278"/><path d="m463.092 278.354c9.96 6.326 23.02-.858 23.02-12.67v-64.53c0-5.13-2.61-9.89-6.93-12.649l-215.11-137.131c-2.455-1.564-5.257-2.348-8.06-2.348v98.178z" fill="#ffb454"/><path d="m245.182 482.024c-20.343-103.124-99.534-103.137-119.88 0-1.86 9.42-3.15 19.46-3.8 30h127.479c-.649-10.54-1.939-20.58-3.799-30z" fill="#80aaff"/><path d="m185.243 434.717c-29.988 0-54.385-24.396-54.385-54.385s24.396-54.385 54.385-54.385 54.385 24.396 54.385 54.385-24.397 54.385-54.385 54.385z" fill="#ffe3c1"/><path d="m386.722 482.024c-20.343-103.124-99.534-103.137-119.88 0-1.86 9.42-3.15 19.46-3.8 30h127.479c-.649-10.54-1.939-20.58-3.799-30z" fill="#00baa0"/><path d="m326.782 434.717c-29.988 0-54.385-24.396-54.385-54.385s24.396-54.385 54.385-54.385 54.385 24.396 54.385 54.385-24.397 54.385-54.385 54.385z" fill="#f1d0a4"/><path d="m392.632 171.715c0 .699-14.963 13.611-136.62 120.449l-47.681-162.118c37.666-100.007 36.461-97.071 36.561-97.071l3.1-3.11c39.849-39.808 104.784-39.837 144.64.021 39.329 39.265 39.359 102.511 0 141.829z" fill="#e62e6b"/><path d="m253.84 100.501 20.944-17.453c6.991-5.826 7.23-16.48.503-22.609-14.978-13.643-38.145-34.774-40.659-37.231-33.101-32.362-83.624-29.671-114.692.945-19.01 18.979-30.023 49.891-30.033 76.621 0 26.75 10.47 51.94 29.5 70.95l136.61 120.439-14.654-91.713c-.835-5.225 1.145-10.503 5.209-13.89l27.616-23.014c7.196-5.997 7.196-17.05 0-23.047l-20.344-16.953c-7.196-5.995-7.196-17.048 0-23.045z" fill="#f66"/></g></svg>