<svg id="Capa_1" enable-background="new 0 0 512 512" height="512" viewBox="0 0 512 512" width="512" xmlns="http://www.w3.org/2000/svg"><g><path d="m139.317 280.526-50-160h-28.634l-50 160c-1.423 4.555-.594 9.515 2.232 13.359 2.826 3.845 7.313 6.115 12.085 6.115h11.028l38.972-124.711 38.972 124.711h11.028c4.772 0 9.259-2.271 12.085-6.115 2.827-3.844 3.656-8.804 2.232-13.359z" fill="#e2dff4"/><path d="m139.317 280.526-50-160h-14.317v54.763l38.972 124.711h11.028c4.772 0 9.259-2.271 12.085-6.115 2.827-3.844 3.656-8.804 2.232-13.359z" fill="#bebcdd"/><path d="m372.683 280.526 50-160h28.635l50 160c1.423 4.555.594 9.515-2.232 13.359-2.827 3.845-7.314 6.115-12.086 6.115h-11.028l-38.972-124.711-38.972 124.711h-11.028c-4.772 0-9.259-2.271-12.085-6.115s-3.656-8.804-2.232-13.359z" fill="#e2dff4"/><path d="m501.318 280.526-50-160h-14.318v54.764-.001l38.972 124.711h11.028c4.772 0 9.259-2.271 12.085-6.115 2.827-3.844 3.656-8.804 2.233-13.359z" fill="#bebcdd"/><path d="m311 300h-110c-8.284 0-15-6.716-15-15v-44.026c-19.394-21.573-30-49.171-30-78.4v-127.574c0-19.299 15.701-35 35-35h70c8.284 0 15 6.716 15 15v95h75c8.284 0 15 6.716 15 15v60c0 3.406-1.159 6.711-3.287 9.371l-36.713 45.891v44.738c0 8.284-6.716 15-15 15z" fill="#ffdecf"/><path d="m351 110h-75v-95c0-8.284-6.716-15-15-15h-5v300h55c8.284 0 15-6.716 15-15v-44.738l36.713-45.891c2.128-2.66 3.287-5.964 3.287-9.371v-60c0-8.284-6.716-15-15-15z" fill="#ffcdbe"/><path d="m321 512h-130c-8.284 0-15-6.716-15-15v-212c0-8.284 6.716-15 15-15h130c8.284 0 15 6.716 15 15v212c0 8.284-6.716 15-15 15z" fill="#f6f9f9"/><path d="m321 270h-65v242h65c8.284 0 15-6.716 15-15v-212c0-8.284-6.716-15-15-15z" fill="#e2dff4"/><path d="m497 90h-482c-8.284 0-15 6.716-15 15s6.716 15 15 15h482c8.284 0 15-6.716 15-15s-6.716-15-15-15z" fill="#bd8472"/><path d="m256 120v-30h241c8.284 0 15 6.716 15 15s-6.716 15-15 15z" fill="#a05f4b"/><path d="m75 380c-41.355 0-75-33.645-75-75v-20c0-8.284 6.716-15 15-15h120c8.284 0 15 6.716 15 15v20c0 41.355-33.645 75-75 75z" fill="#ffe278"/><path d="m135 270h-60v110c41.355 0 75-33.645 75-75v-20c0-8.284-6.716-15-15-15z" fill="#ffc178"/><path d="m437 380c-41.355 0-75-33.645-75-75v-20c0-8.284 6.716-15 15-15h120c8.284 0 15 6.716 15 15v20c0 41.355-33.645 75-75 75z" fill="#ffe278"/><path d="m497 270h-60v110c41.355 0 75-33.645 75-75v-20c0-8.284-6.716-15-15-15z" fill="#ffc178"/><path d="m437 145c-22.056 0-40-17.944-40-40s17.944-40 40-40 40 17.944 40 40-17.944 40-40 40z" fill="#f6f9f9"/><path d="m437 65v80c22.056 0 40-17.944 40-40s-17.944-40-40-40z" fill="#e2dff4"/><path d="m75 145c-22.056 0-40-17.944-40-40s17.944-40 40-40 40 17.944 40 40-17.944 40-40 40z" fill="#f6f9f9"/><path d="m75 65v80c22.056 0 40-17.944 40-40s-17.944-40-40-40z" fill="#e2dff4"/><path d="m321 125h-120c-24.853 0-45-20.147-45-45v-45c0-19.33 15.67-35 35-35h110c19.33 0 35 15.67 35 35v75c0 8.284-6.716 15-15 15z" fill="#ffcdbe"/><path d="m301 0h-45v125h65c8.284 0 15-6.716 15-15v-75c0-19.33-15.67-35-35-35z" fill="#ffbeaa"/><path d="m271 200c-8.284 0-15-6.716-15-15 0-22.282 6.601-43.707 19.089-61.959 4.68-6.835 14.014-8.587 20.85-3.91 6.838 4.678 8.588 14.013 3.91 20.85-9.06 13.242-13.849 28.809-13.849 45.019 0 8.284-6.716 15-15 15z" fill="#ffbeaa"/><path d="m366 139.981v-34.981c0-13.807-11.193-25-25-25h-85.01c-16.563 0-29.99 13.427-29.99 29.99 0 16.563 13.427 29.99 29.99 29.99h43.859c-8.877 12.975-13.849 28.543-13.849 45.02h30z" fill="#ffdecf"/><path d="m316 185 50-45.019v-34.981c0-13.807-11.193-25-25-25h-85v59.981h43.849c-8.877 12.974-13.849 28.542-13.849 45.019z" fill="#ffcdbe"/></g></svg>