<svg id="Capa_1" enable-background="new 0 0 512 512" height="512" viewBox="0 0 512 512" width="512" xmlns="http://www.w3.org/2000/svg"><g><path d="m95.998 418.519c-6.281 0-12.133-3.975-14.229-10.261-2.62-7.859 1.628-16.354 9.487-18.974l24-8c7.863-2.617 16.354 1.628 18.974 9.487s-1.628 16.354-9.487 18.974c-25.675 8.559-25.489 8.774-28.745 8.774z" fill="#d6d6fa"/><path d="m123.519 475.835c-4.595-6.893-2.732-16.206 4.161-20.801l24-16c6.892-4.598 16.205-2.734 20.801 4.16 4.595 6.893 2.732 16.206-4.161 20.801l-24 16c-6.87 4.581-16.19 2.757-20.801-4.16z" fill="#d6d6fa"/><path d="m416.002 418.519c-3.293 0-2.498-.024-28.745-8.773-7.859-2.62-12.106-11.114-9.487-18.974 2.62-7.858 11.116-12.105 18.974-9.487l24 8c7.859 2.62 12.106 11.114 9.487 18.974-2.096 6.284-7.949 10.26-14.229 10.26z" fill="#a1a1cd"/><path d="m367.68 479.995-24-16c-6.894-4.595-8.756-13.908-4.16-20.801 4.594-6.894 13.907-8.755 20.801-4.16l24 16c6.894 4.595 8.756 13.908 4.16 20.801-4.598 6.898-13.912 8.753-20.801 4.16z" fill="#a1a1cd"/><path d="m223.998 258.519c-6.281 0-12.133-3.975-14.229-10.261l-8-24c-2.62-7.859 1.628-16.354 9.487-18.974 7.862-2.618 16.354 1.629 18.974 9.487l8 24c3.242 9.726-4.026 19.748-14.232 19.748z" fill="#d6d6fa"/><path d="m288.002 258.519c-10.189 0-17.479-10.005-14.232-19.747l8-24c2.62-7.859 11.115-12.104 18.974-9.487 7.859 2.62 12.106 11.114 9.487 18.974l-8 24c-2.096 6.284-7.949 10.26-14.229 10.26z" fill="#a1a1cd"/><path d="m512 114.013c0 52.28-26.29 105.29-78.14 157.58-39.43 39.77-83.05 67.9-99.97 78.15-7.09 4.289-16.31 2.029-20.6-5.061-4.29-7.08-2.03-16.31 5.06-20.6 15.97-9.67 57.13-36.221 94.21-73.61 46.08-46.47 69.44-92.38 69.44-136.46 0-21.08-5.2-35.41-15.91-43.81-27.23-21.381-89.26-6.23-139.09 5.949-69.577 17.001-72.499 16.988-142 0-49.83-12.18-111.86-27.34-139.1-5.949-10.7 8.401-15.9 22.731-15.9 43.811 0 44.08 23.36 89.99 69.44 136.46 37.08 37.39 78.24 63.94 94.21 73.61 7.09 4.29 9.35 13.52 5.06 20.6-4.289 7.087-13.511 9.348-20.6 5.061-16.92-10.25-60.54-38.391-99.97-78.15-51.85-52.291-78.14-105.301-78.14-157.581 0-30.47 9.21-53.15 27.38-67.41 57-44.748 179.224 12.41 228.62 12.41 49.457 0 171.6-57.174 228.62-12.41 18.17 14.259 27.38 36.94 27.38 67.41z" fill="#ffe278"/><path d="m512 114.013c0 52.28-26.29 105.29-78.14 157.58-39.43 39.77-83.05 67.9-99.97 78.15-7.09 4.289-16.31 2.029-20.6-5.061-4.29-7.08-2.03-16.31 5.06-20.6 15.97-9.67 57.13-36.221 94.21-73.61 46.08-46.47 69.44-92.38 69.44-136.46 0-21.08-5.2-35.41-15.91-43.81-41.524-32.603-158.851 18.811-210.09 18.811v-30c49.457 0 171.6-57.174 228.62-12.41 18.17 14.259 27.38 36.94 27.38 67.41z" fill="#ecb455"/><circle cx="256" cy="76.513" fill="#ecb455" r="47"/><path d="m303 76.513c0 25.92-21.08 47-47 47v-94c25.92 0 47 21.08 47 47z" fill="#ff8659"/><circle cx="160" cy="315.515" fill="#ecb455" r="47"/><circle cx="352" cy="315.515" fill="#ff8659" r="47"/><path d="m344.94 354.003c0 14.689-5.72 28.5-16.11 38.89l-62.22 62.23c-5.812 5.811-15.325 5.894-21.22 0l-62.22-62.23c-21.45-21.439-21.45-56.34 0-77.78 19.86-19.859 51.26-21.33 72.83-4.39 9.64-7.6 21.48-11.72 33.94-11.72 30.396 0 55 24.6 55 55z" fill="#ff6378"/><path d="m328.83 392.893-62.22 62.23c-2.93 2.93-6.77 4.39-10.61 4.39v-148.79c21.349-16.83 52.738-15.701 72.83 4.39 21.492 21.493 21.502 56.279 0 77.78z" fill="#ea1c81"/></g></svg>