<svg id="Capa_1" enable-background="new 0 0 512 512" height="512" viewBox="0 0 512 512" width="512" xmlns="http://www.w3.org/2000/svg"><g><path d="m498.045 280.053-41.971-134.307c10.831-5.091 19.313-14.374 23.348-25.745h17.578c8.284 0 15-6.716 15-15s-6.716-15-15-15h-17.58c-6.192-17.459-22.865-30-42.42-30s-36.228 12.541-42.42 30h-31.964c-4.942-10.375-14.841-17.946-26.616-19.638v-35.363c0-19.299-15.701-35-35-35h-110c-19.299 0-35 15.701-35 35v55h-38.58c-6.192-17.459-22.865-30-42.42-30s-36.228 12.541-42.42 30h-17.58c-8.284 0-15 6.716-15 15s6.716 15 15 15h17.58c4.034 11.373 12.515 20.654 23.346 25.745l-41.971 134.308c-7.794.538-13.955 7.015-13.955 14.947v20c0 41.355 33.645 75 75 75s75-33.645 75-75v-20c0-7.932-6.161-14.409-13.955-14.947l-41.972-134.308c10.831-5.091 19.312-14.372 23.346-25.745h38.581v42.574c0 29.229 10.606 56.827 30 78.4v29.898c-5.822 2.061-10 7.6-10 14.128v212c0 8.284 6.716 15 15 15h130c8.284 0 15-6.716 15-15v-212c0-6.528-4.178-12.067-10-14.128v-30.61l36.713-45.891c2.128-2.66 3.287-5.964 3.287-9.371v-65h28.579c4.035 11.371 12.517 20.655 23.348 25.745l-41.971 134.307c-7.795.539-13.956 7.016-13.956 14.948v20c0 41.355 33.645 75 75 75s75-33.645 75-75v-20c0-7.932-6.161-14.409-13.955-14.947zm-423.045-190.053c8.271 0 15 6.729 15 15s-6.729 15-15 15-15-6.729-15-15 6.729-15 15-15zm45 225c0 24.813-20.187 45-45 45s-45-20.187-45-45v-5h90zm-74.597-35 29.597-94.711 29.597 94.711zm391.597-190c8.271 0 15 6.729 15 15s-6.729 15-15 15-15-6.729-15-15 6.729-15 15-15zm-251-55c0-2.757 2.243-5 5-5h110c2.757 0 5 2.243 5 5v35h-40c-16.753 0-31.124 10.357-37.071 25h-27.929c-8.271 0-15-6.729-15-15zm120 447h-100v-182h100zm30-302.262-36.713 45.891c-2.128 2.66-3.287 5.964-3.287 9.371v35h-80v-35c0-3.978-1.581-7.793-4.394-10.606-16.512-16.513-25.606-38.468-25.606-61.82v-40.154c4.695 1.665 9.742 2.58 15 2.58h27.929c5.238 12.897 17.01 22.47 31.191 24.569-9.053 13.055-14.12 28.781-14.12 45.431 0 8.284 6.716 15 15 15s15-6.716 15-15c0-18.955 10.532-35.996 27.485-44.472l4.223-2.111c6.223-3.111 9.489-10.092 7.891-16.863s-7.642-11.554-14.599-11.554h-35c-5.514 0-10-4.486-10-10s4.486-10 10-10h65c2.757 0 5 2.243 5 5zm101 5.551 29.597 94.711h-59.193zm45 129.711c0 24.813-20.187 45-45 45s-45-20.187-45-45v-5h90z"/></g></svg>